<svg id="Layer_1" data-name="Layer 1" xmlns="http://www.w3.org/2000/svg" viewBox="0 0 500 500"><defs><style>.cls-1{fill:#4f6ef7;}.cls-2{fill:#0a0a0f;}</style></defs><path class="cls-1" d="M270.06,249.33a95.2,95.2,0,0,1-33.62,6.48c-24,.06-44.5-7.87-60-26.62-12.35-14.94-17.15-32.48-16.36-51.68,1.81-44.57,37.17-86.09,82.42-96.87,22.84-5.45,45-3.53,65.09,9.61S338,122.4,339.76,146.1c1.94,26.29-7.06,49.07-23.15,69.41-.51.64-1.11,1.2-1.89,2l-18.64-19.47c3-4.93,6.23-9.6,8.9-14.56a72.26,72.26,0,0,0,8.72-35.9c-.46-30.21-23.58-53.69-53.71-55.12-40-1.9-77.35,28.5-84,68.48-4.28,25.7,7.19,50.22,29.14,61.42,14.83,7.56,30.46,8.25,46.37,4.13,2.37-.61,3.46-.1,4.69,1.81C260.64,235.28,265.27,242.12,270.06,249.33Z"/><path class="cls-1" d="M277.46,105.48A48.09,48.09,0,0,1,295,119.79l-42.5,47.6,84.71,88.26c-1.59.09-2.48.19-3.36.19-14.41,0-28.83,0-43.24,0a4.61,4.61,0,0,1-4.33-2.26q-28.79-41.81-57.71-83.52c-1.39-2-1.46-3.23.18-5.22,15.74-19.09,31.33-38.28,47-57.44C276.25,106.81,276.82,106.21,277.46,105.48Z"/><path class="cls-1" d="M223.13,216.49a48.24,48.24,0,0,1-20.25-10.88,4.41,4.41,0,0,1-1.24-3.09c.79-15.32,1.7-30.63,2.55-46,.62-11.13,1.14-22.28,1.84-33.41a6.31,6.31,0,0,1,1.63-3.81A66.71,66.71,0,0,1,227.39,106c.4-.17.83-.27,1.7-.55C227.1,142.56,225.12,179.37,223.13,216.49Z"/><path class="cls-2" d="M27.63,360.6V267.79H48v36.86h2.79l35.1-36.86h26.14L66.91,313.53l46.7,47.07H86.71L50.83,323H48V360.6Z"/><path class="cls-2" d="M125.05,360.6V294.84h19.18v7.42H147a11.1,11.1,0,0,1,5.65-5.83,21.34,21.34,0,0,1,9.2-1.86h9.28v14.85h-9.59q-7.43,0-12.22,3.39t-4.79,10.4V360.6Z"/><path class="cls-2" d="M208.25,362.46A41.44,41.44,0,0,1,193.56,360a23.49,23.49,0,0,1-10.28-7.16,17.69,17.69,0,0,1-3.79-11.47A17.16,17.16,0,0,1,183.28,330a22.91,22.91,0,0,1,10.51-6.89,47,47,0,0,1,15.39-2.32h21v-3.72a9.71,9.71,0,0,0-3.4-7.62q-3.41-3-10.83-3t-10.82,2.85a13,13,0,0,0-4.64,7.36l-17.94-5.17a25.9,25.9,0,0,1,5.95-9.22,29.76,29.76,0,0,1,11-6.76A47.76,47.76,0,0,1,216.29,293q15.15,0,24,6.5t8.81,18.83v24.53c0,2.65,1.45,4,4.33,4h6.19V360.6h-13a17.11,17.11,0,0,1-9.43-2.38,7.26,7.26,0,0,1-3.71-6.37v-.13h-2.94a17,17,0,0,1-2.79,4.18,17.91,17.91,0,0,1-6.8,4.57Q216.3,362.47,208.25,362.46Zm3.4-13.52q8.19,0,13.38-3.92a12.38,12.38,0,0,0,5.18-10.4v-1.33H210.57q-5.41,0-8.51,2a6.27,6.27,0,0,0-3.09,5.57,6.82,6.82,0,0,0,3.25,5.83C204.38,348.19,207.53,348.94,211.65,348.94Z"/><path class="cls-2" d="M285.57,360.6l-24.44-65.76h20.73l17.78,53.57h2.78l17.79-53.57h20.72L316.5,360.6Z"/><path class="cls-2" d="M364,287.15a13.71,13.71,0,0,1-8.89-2.92,9.94,9.94,0,0,1,0-15.38,15.11,15.11,0,0,1,17.86,0,10.1,10.1,0,0,1,0,15.38A13.67,13.67,0,0,1,364,287.15Zm-9.75,73.45V294.84h19.49V360.6Z"/><path class="cls-1" d="M452.88,387.12V353.05H450.1a19.5,19.5,0,0,1-4.49,4.44,24.2,24.2,0,0,1-7.65,3.58,41.83,41.83,0,0,1-11.68,1.39,38.07,38.07,0,0,1-17.16-3.91,31.14,31.14,0,0,1-12.68-11.47q-4.8-7.56-4.79-18.3v-2.12q0-10.74,4.79-18.3a31,31,0,0,1,12.76-11.47A38.32,38.32,0,0,1,426.28,293q10.52,0,16,3a22.68,22.68,0,0,1,8.12,6.82h2.78v-8h19.18v92.28Zm-20.72-39.24q9.12,0,15.08-5t5.95-14.52v-1.32q0-9.56-6-14.52t-15-5q-9,0-15,5t-6,14.52v1.32q0,9.56,6,14.52T432.16,347.88Z"/></svg>