<svg id="Layer_1" data-name="Layer 1" xmlns="http://www.w3.org/2000/svg" viewBox="0 0 666.08 187.04"><defs><style>.cls-1{fill:#4f6ef7;}.cls-2{fill:#f8f8ff;}</style></defs><path class="cls-1" d="M113.49,176.22a95.12,95.12,0,0,1-33.62,6.48c-24,.06-44.49-7.87-60-26.62C7.5,141.14,2.71,123.6,3.49,104.4,5.31,59.83,40.67,18.31,85.91,7.53c22.85-5.44,45-3.53,65.1,9.61S181.45,49.29,183.2,73c1.94,26.29-7.07,49.07-23.16,69.41-.51.64-1.11,1.2-1.89,2L139.51,125c3-4.93,6.24-9.6,8.91-14.56a72.25,72.25,0,0,0,8.71-35.9c-.46-30.21-23.58-53.69-53.71-55.12-39.94-1.9-77.34,28.5-84,68.48-4.29,25.7,7.18,50.22,29.13,61.42,14.84,7.56,30.47,8.25,46.38,4.13,2.37-.61,3.45-.1,4.68,1.81C104.08,162.17,108.7,169,113.49,176.22Z"/><path class="cls-1" d="M120.9,32.37a48.17,48.17,0,0,1,17.55,14.31L95.94,94.28l84.72,88.26c-1.6.09-2.48.19-3.37.19-14.41,0-28.82,0-43.23.05a4.64,4.64,0,0,1-4.34-2.26Q101,138.72,72,97c-1.38-2-1.46-3.23.18-5.22,15.74-19.09,31.34-38.28,47-57.44C119.69,33.7,120.25,33.1,120.9,32.37Z"/><path class="cls-1" d="M66.57,143.38A48.22,48.22,0,0,1,46.31,132.5a4.36,4.36,0,0,1-1.23-3.09c.78-15.32,1.7-30.63,2.54-45.95.62-11.13,1.14-22.28,1.84-33.41a6.31,6.31,0,0,1,1.63-3.81A66.71,66.71,0,0,1,70.82,32.86c.4-.17.83-.27,1.7-.55C70.53,69.45,68.56,106.26,66.57,143.38Z"/><path class="cls-2" d="M217.25,140.38V47.57h20.41V84.43h2.78l35.11-36.86h26.13L256.52,93.31l46.71,47.07H276.32l-35.88-37.65h-2.78v37.65Z"/><path class="cls-2" d="M314.67,140.38V74.62h19.17V82h2.79a11,11,0,0,1,5.64-5.83,21.37,21.37,0,0,1,9.2-1.86h9.28V89.2h-9.59q-7.43,0-12.21,3.38T334.15,103v37.39Z"/><path class="cls-2" d="M397.86,142.24a41.48,41.48,0,0,1-14.69-2.45,23.49,23.49,0,0,1-10.28-7.16,17.69,17.69,0,0,1-3.79-11.47,17.16,17.16,0,0,1,3.79-11.34,22.91,22.91,0,0,1,10.51-6.89,47,47,0,0,1,15.39-2.33h21V96.89a9.68,9.68,0,0,0-3.4-7.62q-3.41-3-10.82-3t-10.83,2.85a13.08,13.08,0,0,0-4.64,7.35l-17.94-5.17a25.85,25.85,0,0,1,6-9.21,29.63,29.63,0,0,1,11-6.76,47.7,47.7,0,0,1,16.77-2.59q15.17,0,24,6.5t8.82,18.83v24.53q0,4,4.33,4h6.18v13.79h-13a17.14,17.14,0,0,1-9.43-2.38,7.28,7.28,0,0,1-3.71-6.37v-.13h-2.94a16.87,16.87,0,0,1-2.78,4.18,18.07,18.07,0,0,1-6.81,4.57Q405.91,142.25,397.86,142.24Zm3.4-13.52q8.21,0,13.38-3.92a12.39,12.39,0,0,0,5.18-10.41v-1.32H400.18q-5.42,0-8.5,2a6.25,6.25,0,0,0-3.1,5.57,6.84,6.84,0,0,0,3.25,5.83Q395.09,128.73,401.26,128.72Z"/><path class="cls-2" d="M475.18,140.38,450.75,74.62h20.72l17.78,53.56H492l17.78-53.56h20.72l-24.43,65.76Z"/><path class="cls-2" d="M553.58,66.93A13.76,13.76,0,0,1,544.69,64a10,10,0,0,1,0-15.38,15.11,15.11,0,0,1,17.86,0,9.46,9.46,0,0,1,3.56,7.69A9.46,9.46,0,0,1,562.55,64,13.7,13.7,0,0,1,553.58,66.93Zm-9.74,73.45V74.62h19.48v65.76Z"/><path class="cls-1" d="M642.5,166.9V132.83h-2.79a19.64,19.64,0,0,1-4.48,4.44,24.27,24.27,0,0,1-7.66,3.58,41.71,41.71,0,0,1-11.67,1.39,38.21,38.21,0,0,1-17.17-3.91,31.26,31.26,0,0,1-12.68-11.47q-4.78-7.56-4.79-18.3v-2.12q0-10.74,4.79-18.3a31.1,31.1,0,0,1,12.76-11.47,38.33,38.33,0,0,1,17.09-3.91q10.51,0,16,3A22.71,22.71,0,0,1,640,82.57h2.79V74.62H662V166.9Zm-20.73-39.25q9.13,0,15.08-5t6-14.52v-1.32q0-9.56-6-14.52t-15-5q-9,0-15,5t-6,14.52v1.32q0,9.56,6,14.52T621.77,127.65Z"/></svg>