<svg id="Layer_1" data-name="Layer 1" xmlns="http://www.w3.org/2000/svg" viewBox="0 0 669.32 184.62"><defs><style>.cls-1{fill:#4f6ef7;}.cls-2{fill:#0a0a0f;}</style></defs><path class="cls-1" d="M115.65,175.14A95.12,95.12,0,0,1,82,181.62c-24,.06-44.49-7.87-60-26.62C9.66,140.06,4.87,122.52,5.65,103.32,7.47,58.75,42.83,17.23,88.07,6.45c22.85-5.44,45-3.53,65.1,9.61s30.44,32.15,32.19,55.85c1.94,26.29-7.07,49.07-23.16,69.41-.5.64-1.11,1.2-1.89,2l-18.64-19.47c3-4.93,6.24-9.6,8.91-14.56a72.25,72.25,0,0,0,8.71-35.9c-.46-30.21-23.58-53.69-53.71-55.12-39.94-1.9-77.34,28.5-84,68.48-4.29,25.7,7.18,50.22,29.14,61.42,14.83,7.56,30.46,8.25,46.37,4.13,2.37-.61,3.45-.1,4.68,1.81C106.24,161.09,110.87,167.93,115.65,175.14Z"/><path class="cls-1" d="M123.06,31.29A48.17,48.17,0,0,1,140.61,45.6L98.1,93.2l84.72,88.26c-1.6.09-2.48.19-3.37.19-14.41,0-28.82,0-43.23,0a4.61,4.61,0,0,1-4.33-2.26q-28.78-41.81-57.72-83.52c-1.38-2-1.46-3.23.18-5.22,15.74-19.09,31.34-38.28,47-57.44C121.85,32.62,122.41,32,123.06,31.29Z"/><path class="cls-1" d="M68.73,142.3a48.22,48.22,0,0,1-20.26-10.88,4.41,4.41,0,0,1-1.23-3.09c.78-15.32,1.7-30.63,2.55-46C50.4,71.25,50.92,60.1,51.62,49a6.31,6.31,0,0,1,1.63-3.81A66.71,66.71,0,0,1,73,31.78c.4-.17.83-.27,1.7-.55C72.69,68.37,70.72,105.18,68.73,142.3Z"/><path class="cls-2" d="M219.41,139.3V46.49h20.41V83.35h2.78l35.11-36.86h26.13L258.69,92.23l46.7,47.07H278.48L242.6,101.65h-2.78V139.3Z"/><path class="cls-2" d="M316.83,139.3V73.54H336V81h2.79a11,11,0,0,1,5.64-5.83,21.37,21.37,0,0,1,9.2-1.86h9.28V88.12h-9.59c-4.94,0-9,1.13-12.21,3.38s-4.8,5.73-4.8,10.41V139.3Z"/><path class="cls-2" d="M400,141.16a41.48,41.48,0,0,1-14.69-2.45,23.49,23.49,0,0,1-10.28-7.16,17.69,17.69,0,0,1-3.79-11.47,17.16,17.16,0,0,1,3.79-11.34,22.89,22.89,0,0,1,10.52-6.89A47,47,0,0,1,401,99.52h21V95.81a9.68,9.68,0,0,0-3.4-7.62q-3.4-3-10.82-3t-10.83,2.85a13.08,13.08,0,0,0-4.64,7.35l-17.94-5.17a25.85,25.85,0,0,1,6-9.21,29.63,29.63,0,0,1,11-6.76,47.72,47.72,0,0,1,16.78-2.59q15.15,0,24,6.5T440.85,97v24.53q0,4,4.33,4h6.18V139.3h-13a17.16,17.16,0,0,1-9.43-2.38,7.28,7.28,0,0,1-3.71-6.37v-.13h-2.94a16.87,16.87,0,0,1-2.78,4.18,18.07,18.07,0,0,1-6.81,4.57Q408.07,141.17,400,141.16Zm3.41-13.52q8.19,0,13.37-3.92A12.36,12.36,0,0,0,422,113.31V112H402.34q-5.41,0-8.5,2a6.24,6.24,0,0,0-3.09,5.57,6.83,6.83,0,0,0,3.24,5.83C396.16,126.89,399.3,127.64,403.43,127.64Z"/><path class="cls-2" d="M477.34,139.3,452.91,73.54h20.72l17.78,53.56h2.79L512,73.54H532.7L508.27,139.3Z"/><path class="cls-2" d="M555.74,65.85a13.78,13.78,0,0,1-8.89-2.92,9.38,9.38,0,0,1-3.63-7.69,9.38,9.38,0,0,1,3.63-7.69,15.11,15.11,0,0,1,17.86,0,9.46,9.46,0,0,1,3.56,7.69,9.46,9.46,0,0,1-3.56,7.69A13.7,13.7,0,0,1,555.74,65.85ZM546,139.3V73.54h19.48V139.3Z"/><path class="cls-1" d="M644.66,165.82V131.75h-2.79a19.43,19.43,0,0,1-4.48,4.44,24.27,24.27,0,0,1-7.66,3.58,41.71,41.71,0,0,1-11.67,1.39,38.21,38.21,0,0,1-17.17-3.91,31.26,31.26,0,0,1-12.68-11.47q-4.79-7.56-4.79-18.3v-2.12q0-10.74,4.79-18.3A31.1,31.1,0,0,1,601,75.59a38.36,38.36,0,0,1,17.09-3.91q10.52,0,16,3a22.71,22.71,0,0,1,8.12,6.83H645V73.54h19.17v92.28Zm-20.72-39.25q9.12,0,15.07-5t6-14.52v-1.32q0-9.56-6-14.52t-15-5q-9,0-15,5t-6,14.52v1.32q0,9.56,6,14.52T623.94,126.57Z"/></svg>