<svg id="Layer_1" data-name="Layer 1" xmlns="http://www.w3.org/2000/svg" viewBox="0 0 190.7 189.78"><defs><style>.cls-1{fill:#4f6ef7;}</style></defs><path class="cls-1" d="M115.62,176.71A95.2,95.2,0,0,1,82,183.19c-24,.06-44.5-7.87-60-26.62C9.63,141.63,4.83,124.09,5.62,104.89,7.43,60.33,42.79,18.8,88,8c22.84-5.44,45-3.53,65.09,9.61s30.45,32.15,32.19,55.85c1.94,26.29-7.06,49.07-23.15,69.41-.51.64-1.11,1.2-1.89,2q-9.5-9.9-18.64-19.47c3-4.93,6.23-9.6,8.9-14.56A72.24,72.24,0,0,0,159.26,75c-.46-30.21-23.58-53.7-53.71-55.13C65.6,18,28.2,48.37,21.53,88.36c-4.28,25.69,7.19,50.21,29.14,61.41C65.5,157.33,81.13,158,97,153.9c2.37-.61,3.46-.1,4.69,1.81C106.2,162.66,110.83,169.5,115.62,176.71Z"/><path class="cls-1" d="M123,32.86a48.09,48.09,0,0,1,17.55,14.31C126.42,63,112.32,78.81,98.07,94.77L182.78,183c-1.59.09-2.48.19-3.36.19-14.41,0-28.83,0-43.24.05a4.61,4.61,0,0,1-4.33-2.26Q103.07,139.2,74.14,97.49c-1.39-2-1.46-3.23.18-5.22,15.74-19.08,31.33-38.28,47-57.44C121.81,34.19,122.38,33.6,123,32.86Z"/><path class="cls-1" d="M68.69,143.87A48.13,48.13,0,0,1,48.44,133a4.4,4.4,0,0,1-1.24-3.09C48,114.58,48.9,99.27,49.75,84c.62-11.14,1.14-22.29,1.84-33.42a6.33,6.33,0,0,1,1.63-3.81A66.71,66.71,0,0,1,73,33.35c.4-.17.83-.27,1.7-.55C72.66,69.94,70.68,106.76,68.69,143.87Z"/></svg>